<?xml version="1.0" encoding="UTF-8"?>
<svg id="Calque_1" xmlns="http://www.w3.org/2000/svg" version="1.1" viewBox="0 0 374 267">
  <!-- Generator: Adobe Illustrator 29.5.1, SVG Export Plug-In . SVG Version: 2.1.0 Build 141)  -->
  <defs>
    <style>
      .st0 {
        fill: #000f9f;
      }

      .st1 {
        fill: #00bbb4;
      }

      .st2 {
        fill: #ff4713;
      }
    </style>
  </defs>
  <g>
    <path class="st1" d="M1.6,256.9c1.2.7,2.9,1.3,4.6,1.3,2.7,0,4.2-1.4,4.2-3.4s-1.1-3-3.8-4c-3.3-1.2-5.3-2.9-5.3-5.7s2.6-5.4,6.5-5.4,3.6.5,4.4,1l-.7,2.1c-.6-.4-2-1-3.8-1-2.8,0-3.8,1.6-3.8,3s1.2,2.8,4,3.9c3.4,1.3,5.1,3,5.1,5.9s-2.3,5.8-7,5.8-4.1-.6-5.1-1.3l.7-2.2Z"/>
    <path class="st1" d="M18.9,253.4c0,3.5,2.3,5,4.9,5s3-.3,4-.7l.5,1.9c-.9.4-2.5.9-4.8.9-4.4,0-7.1-3-7.1-7.3s2.6-7.8,6.8-7.8,5.9,4.1,5.9,6.8,0,.9,0,1.2h-10.1ZM26.5,251.5c0-1.7-.7-4.2-3.6-4.2s-3.8,2.4-4,4.2h7.6Z"/>
    <path class="st1" d="M33,250.2c0-1.7,0-3.2-.1-4.5h2.3v2.8h.2c.7-1.9,2.3-3.2,4-3.2s.5,0,.7,0v2.5c-.3,0-.5,0-.9,0-1.8,0-3.2,1.4-3.5,3.4,0,.4-.1.8-.1,1.2v7.7h-2.6v-9.9Z"/>
    <path class="st1" d="M45.1,245.7l2.8,8.1c.5,1.3.9,2.5,1.2,3.7h0c.3-1.2.7-2.4,1.2-3.7l2.8-8.1h2.7l-5.7,14.4h-2.5l-5.5-14.4h2.8Z"/>
    <path class="st1" d="M62,241.6c0,.9-.6,1.6-1.7,1.6s-1.6-.7-1.6-1.6c0-.9.7-1.6,1.6-1.6s1.6.7,1.6,1.6ZM59.1,260.1v-14.4h2.6v14.4h-2.6Z"/>
    <path class="st1" d="M77,259.6c-.7.3-2.2.8-4.1.8-4.3,0-7.2-3-7.2-7.4s3-7.7,7.7-7.7,2.9.4,3.6.8l-.6,2c-.6-.3-1.6-.7-3.1-.7-3.3,0-5.1,2.5-5.1,5.5,0,3.3,2.1,5.4,5,5.4s2.5-.4,3.2-.7l.4,2Z"/>
    <path class="st1" d="M82,253.4c0,3.5,2.3,5,4.9,5s3-.3,4-.7l.5,1.9c-.9.4-2.5.9-4.8.9-4.4,0-7.1-3-7.1-7.3s2.6-7.8,6.8-7.8,5.9,4.1,5.9,6.8,0,.9,0,1.2h-10.1ZM89.7,251.5c0-1.7-.7-4.2-3.6-4.2s-3.8,2.4-4,4.2h7.6Z"/>
    <path class="st1" d="M95.8,257.4c.8.5,2.2,1,3.5,1,1.9,0,2.8-.9,2.8-2.1s-.8-1.9-2.7-2.6c-2.6-.9-3.8-2.4-3.8-4.1,0-2.3,1.9-4.2,5-4.2s2.7.4,3.5.9l-.7,1.9c-.6-.3-1.6-.8-3-.8s-2.4.9-2.4,2,.8,1.7,2.7,2.5c2.5.9,3.8,2.2,3.8,4.3,0,2.6-2,4.3-5.4,4.3s-3-.4-4.1-1l.6-2Z"/>
    <path class="st1" d="M128,238.9v17.4c0,1.3,0,2.7.1,3.7h-2.3v-2.5h-.2c-.8,1.6-2.5,2.8-4.9,2.8-3.5,0-6.2-3-6.2-7.3,0-4.8,3-7.7,6.5-7.7s3.7,1,4.3,2.2h0v-8.6h2.6ZM125.4,251.6c0-.3,0-.8-.1-1.1-.4-1.7-1.8-3-3.8-3s-4.3,2.4-4.3,5.5,1.5,5.4,4.3,5.4,3.3-1.2,3.8-3.1c0-.3.1-.7.1-1.1v-2.5Z"/>
    <path class="st1" d="M136.5,239.7c-.7,2.5-2,5.7-2.8,7.1l-1.7.2c.6-1.7,1.4-4.8,1.8-7l2.7-.3Z"/>
    <path class="st1" d="M147.5,260.1l-.2-1.8h0c-.8,1.1-2.3,2.1-4.4,2.1s-4.4-2.1-4.4-4.1c0-3.5,3.1-5.4,8.7-5.4v-.3c0-1.2-.3-3.3-3.3-3.3-1.3,0-2.7.4-3.8,1.1l-.6-1.7c1.2-.8,2.9-1.3,4.8-1.3,4.4,0,5.5,3,5.5,5.9v5.4c0,1.2,0,2.5.2,3.4h-2.4ZM147.1,252.7c-2.8,0-6.1.4-6.1,3.2s1.1,2.5,2.4,2.5c1.9,0,3.1-1.2,3.5-2.4,0-.3.1-.6.1-.8v-2.5Z"/>
    <path class="st1" d="M157.5,241.6c0,.9-.6,1.6-1.7,1.6s-1.6-.7-1.6-1.6c0-.9.7-1.6,1.6-1.6s1.6.7,1.6,1.6ZM154.5,260.1v-14.4h2.6v14.4h-2.6Z"/>
    <path class="st1" d="M174.6,238.9v17.4c0,1.3,0,2.7.1,3.7h-2.3v-2.5h-.2c-.8,1.6-2.5,2.8-4.9,2.8-3.5,0-6.2-3-6.2-7.3,0-4.8,3-7.7,6.5-7.7s3.7,1,4.3,2.2h0v-8.6h2.6ZM172,251.6c0-.3,0-.8-.1-1.1-.4-1.7-1.8-3-3.8-3s-4.3,2.4-4.3,5.5,1.5,5.4,4.3,5.4,3.3-1.2,3.8-3.1c0-.3.1-.7.1-1.1v-2.5Z"/>
    <path class="st1" d="M181.1,253.4c0,3.5,2.3,5,4.9,5s3-.3,4-.7l.5,1.9c-.9.4-2.5.9-4.8.9-4.4,0-7.1-3-7.1-7.3s2.6-7.8,6.8-7.8,5.9,4.1,5.9,6.8,0,.9,0,1.2h-10.1ZM188.8,251.5c0-1.7-.7-4.2-3.6-4.2s-3.8,2.4-4,4.2h7.6Z"/>
    <path class="st1" d="M210.2,260.1l-.2-1.8h0c-.8,1.1-2.3,2.1-4.4,2.1s-4.4-2.1-4.4-4.1c0-3.5,3.1-5.4,8.7-5.4v-.3c0-1.2-.3-3.3-3.3-3.3-1.3,0-2.7.4-3.8,1.1l-.6-1.7c1.2-.8,2.9-1.3,4.8-1.3,4.4,0,5.5,3,5.5,5.9v5.4c0,1.2,0,2.5.2,3.4h-2.4ZM205.7,239.4l2.6,4.3h-1.9l-3.6-4.3h2.9ZM209.8,252.7c-2.8,0-6.1.4-6.1,3.2s1.1,2.5,2.4,2.5c1.9,0,3.1-1.2,3.5-2.4,0-.3.1-.6.1-.8v-2.5Z"/>
    <path class="st1" d="M224.2,238.9h2.6v21.2h-2.6v-21.2Z"/>
    <path class="st1" d="M239.9,260.1l-.2-1.8h0c-.8,1.1-2.3,2.1-4.4,2.1s-4.4-2.1-4.4-4.1c0-3.5,3.1-5.4,8.7-5.4v-.3c0-1.2-.3-3.3-3.3-3.3-1.3,0-2.7.4-3.8,1.1l-.6-1.7c1.2-.8,2.9-1.3,4.8-1.3,4.4,0,5.5,3,5.5,5.9v5.4c0,1.2,0,2.5.2,3.4h-2.4ZM239.5,252.7c-2.8,0-6.1.4-6.1,3.2s1.1,2.5,2.4,2.5c1.9,0,3.1-1.2,3.5-2.4,0-.3.1-.6.1-.8v-2.5Z"/>
    <path class="st1" d="M253.9,250.4c0-1.8,0-3.3-.1-4.7h2.3v2.5h.2c1-1.8,2.8-2.8,5.1-2.8,3.5,0,6.1,2.9,6.1,7.3s-3.2,7.8-6.6,7.8-3.6-.8-4.4-2.3h0v7.8h-2.6v-15.6ZM256.5,254.2c0,.4,0,.7.1,1.1.5,1.8,2.1,3.1,3.9,3.1,2.8,0,4.4-2.3,4.4-5.6s-1.5-5.3-4.3-5.3-3.5,1.3-4,3.2c0,.3-.2.7-.2,1.1v2.5Z"/>
    <path class="st1" d="M273,253.4c0,3.5,2.3,5,4.9,5s3-.3,4-.7l.5,1.9c-.9.4-2.5.9-4.8.9-4.4,0-7.1-3-7.1-7.3s2.6-7.8,6.8-7.8,5.9,4.1,5.9,6.8,0,.9,0,1.2h-10.1ZM280.6,251.5c0-1.7-.7-4.2-3.6-4.2s-3.8,2.4-4,4.2h7.6Z"/>
    <path class="st1" d="M287.1,250.2c0-1.7,0-3.2-.1-4.5h2.3v2.8h.2c.7-1.9,2.3-3.2,4-3.2s.5,0,.7,0v2.5c-.3,0-.5,0-.9,0-1.8,0-3.2,1.4-3.5,3.4,0,.4-.1.8-.1,1.2v7.7h-2.6v-9.9Z"/>
    <path class="st1" d="M297.1,257.4c.8.5,2.2,1,3.5,1,1.9,0,2.8-.9,2.8-2.1s-.8-1.9-2.7-2.6c-2.6-.9-3.8-2.4-3.8-4.1,0-2.3,1.9-4.2,5-4.2s2.7.4,3.5.9l-.7,1.9c-.6-.3-1.6-.8-3-.8s-2.4.9-2.4,2,.8,1.7,2.7,2.5c2.5.9,3.8,2.2,3.8,4.3,0,2.6-2,4.3-5.4,4.3s-3-.4-4.1-1l.6-2Z"/>
    <path class="st1" d="M323,252.8c0,5.3-3.7,7.7-7.2,7.7s-6.9-2.8-6.9-7.4,3.2-7.6,7.2-7.6,6.9,3,6.9,7.4ZM311.6,252.9c0,3.2,1.8,5.5,4.4,5.5s4.4-2.3,4.4-5.6-1.2-5.5-4.3-5.5-4.4,2.9-4.4,5.6Z"/>
    <path class="st1" d="M327,249.6c0-1.5,0-2.7-.1-3.9h2.3v2.4h.2c.7-1.4,2.4-2.7,4.8-2.7s5.1,1.2,5.1,6.1v8.6h-2.6v-8.3c0-2.3-.9-4.3-3.3-4.3s-3.1,1.2-3.5,2.7c-.1.3-.2.8-.2,1.2v8.7h-2.6v-10.5Z"/>
    <path class="st1" d="M344.2,249.6c0-1.5,0-2.7-.1-3.9h2.3v2.4h.2c.7-1.4,2.4-2.7,4.8-2.7s5.1,1.2,5.1,6.1v8.6h-2.6v-8.3c0-2.3-.9-4.3-3.3-4.3s-3.1,1.2-3.5,2.7c-.1.3-.2.8-.2,1.2v8.7h-2.6v-10.5Z"/>
    <path class="st1" d="M362.8,253.4c0,3.5,2.3,5,4.9,5s3-.3,4-.7l.5,1.9c-.9.4-2.5.9-4.8.9-4.4,0-7.1-3-7.1-7.3s2.6-7.8,6.8-7.8,5.9,4.1,5.9,6.8,0,.9,0,1.2h-10.1ZM370.5,251.5c0-1.7-.7-4.2-3.6-4.2s-3.8,2.4-4,4.2h7.6Z"/>
  </g>
  <g>
    <g>
      <path class="st1" d="M1.4,257.1c1.2.7,2.8,1.3,4.6,1.3,2.7,0,4.2-1.4,4.2-3.4s-1.1-3-3.8-4c-3.3-1.2-5.3-2.9-5.3-5.7s2.6-5.4,6.5-5.4,3.6.5,4.4,1l-.7,2.1c-.6-.4-2-1-3.8-1-2.8,0-3.8,1.6-3.8,3s1.2,2.8,4,3.9c3.4,1.3,5.1,3,5.1,5.9s-2.3,5.8-7,5.8-4.1-.6-5.1-1.3l.7-2.2Z"/>
      <path class="st1" d="M18.7,253.5c0,3.5,2.3,5,4.9,5s3-.3,4-.7l.5,1.9c-.9.4-2.5.9-4.8.9-4.4,0-7.1-3-7.1-7.3s2.6-7.8,6.8-7.8,5.9,4.1,5.9,6.8,0,.9,0,1.2h-10.1ZM26.4,251.6c0-1.7-.7-4.2-3.6-4.2s-3.8,2.4-4,4.2h7.6Z"/>
      <path class="st1" d="M32.8,250.3c0-1.7,0-3.2-.1-4.5h2.3v2.8h.2c.7-1.9,2.3-3.2,4-3.2s.5,0,.7,0v2.5c-.3,0-.5,0-.9,0-1.8,0-3.2,1.4-3.5,3.4,0,.4-.1.8-.1,1.2v7.7h-2.6v-9.9Z"/>
      <path class="st1" d="M45,245.8l2.8,8.1c.5,1.3.9,2.5,1.2,3.7h0c.3-1.2.7-2.4,1.2-3.7l2.8-8.1h2.7l-5.7,14.4h-2.5l-5.5-14.4h2.8Z"/>
      <path class="st1" d="M61.9,241.7c0,.9-.6,1.6-1.7,1.6s-1.6-.7-1.6-1.6c0-.9.7-1.6,1.6-1.6s1.6.7,1.6,1.6ZM58.9,260.2v-14.4h2.6v14.4h-2.6Z"/>
      <path class="st1" d="M76.8,259.7c-.7.3-2.2.8-4.1.8-4.3,0-7.2-3-7.2-7.4s3-7.7,7.7-7.7,2.9.4,3.6.8l-.6,2c-.6-.3-1.6-.7-3.1-.7-3.3,0-5.1,2.5-5.1,5.5,0,3.3,2.1,5.4,5,5.4s2.5-.4,3.2-.7l.4,2Z"/>
      <path class="st1" d="M81.9,253.5c0,3.5,2.3,5,4.9,5s3-.3,4-.7l.5,1.9c-.9.4-2.5.9-4.8.9-4.4,0-7.1-3-7.1-7.3s2.6-7.8,6.8-7.8,5.9,4.1,5.9,6.8,0,.9,0,1.2h-10.1ZM89.5,251.6c0-1.7-.7-4.2-3.6-4.2s-3.8,2.4-4,4.2h7.6Z"/>
      <path class="st1" d="M95.6,257.5c.8.5,2.2,1,3.5,1,1.9,0,2.8-.9,2.8-2.1s-.8-1.9-2.7-2.6c-2.6-.9-3.8-2.4-3.8-4.1,0-2.3,1.9-4.2,5-4.2s2.7.4,3.5.9l-.7,1.9c-.6-.3-1.6-.8-3-.8s-2.4.9-2.4,2,.8,1.7,2.7,2.5c2.5.9,3.8,2.2,3.8,4.3,0,2.6-2,4.3-5.4,4.3s-3-.4-4-1l.6-2Z"/>
      <path class="st1" d="M127.8,239.1v17.4c0,1.3,0,2.7.1,3.7h-2.3v-2.5h-.2c-.8,1.6-2.5,2.8-4.9,2.8-3.5,0-6.2-3-6.2-7.3,0-4.8,3-7.7,6.5-7.7s3.7,1,4.3,2.2h0v-8.6h2.6ZM125.2,251.7c0-.3,0-.8-.1-1.1-.4-1.7-1.8-3-3.8-3s-4.3,2.4-4.3,5.5,1.5,5.4,4.3,5.4,3.3-1.2,3.8-3.1c0-.3.1-.7.1-1.1v-2.5Z"/>
      <path class="st1" d="M136.4,239.8c-.7,2.5-2,5.7-2.8,7.1l-1.7.2c.6-1.7,1.4-4.8,1.8-7l2.7-.3Z"/>
      <path class="st1" d="M147.3,260.2l-.2-1.8h0c-.8,1.1-2.3,2.1-4.4,2.1s-4.4-2.1-4.4-4.1c0-3.5,3.1-5.4,8.7-5.4v-.3c0-1.2-.3-3.3-3.3-3.3-1.3,0-2.7.4-3.8,1.1l-.6-1.7c1.2-.8,2.9-1.3,4.8-1.3,4.4,0,5.5,3,5.5,5.9v5.4c0,1.2,0,2.5.2,3.4h-2.4ZM146.9,252.9c-2.8,0-6.1.4-6.1,3.2s1.1,2.5,2.4,2.5c1.9,0,3.1-1.2,3.5-2.4,0-.3.1-.6.1-.8v-2.5Z"/>
      <path class="st1" d="M157.3,241.7c0,.9-.6,1.6-1.7,1.6s-1.6-.7-1.6-1.6c0-.9.7-1.6,1.6-1.6s1.6.7,1.6,1.6ZM154.4,260.2v-14.4h2.6v14.4h-2.6Z"/>
      <path class="st1" d="M174.4,239.1v17.4c0,1.3,0,2.7.1,3.7h-2.3v-2.5h-.2c-.8,1.6-2.5,2.8-4.9,2.8-3.5,0-6.2-3-6.2-7.3,0-4.8,3-7.7,6.5-7.7s3.7,1,4.3,2.2h0v-8.6h2.6ZM171.8,251.7c0-.3,0-.8-.1-1.1-.4-1.7-1.8-3-3.8-3s-4.3,2.4-4.3,5.5,1.5,5.4,4.3,5.4,3.3-1.2,3.8-3.1c0-.3.1-.7.1-1.1v-2.5Z"/>
      <path class="st1" d="M180.9,253.5c0,3.5,2.3,5,4.9,5s3-.3,4-.7l.5,1.9c-.9.4-2.5.9-4.8.9-4.4,0-7.1-3-7.1-7.3s2.6-7.8,6.8-7.8,5.9,4.1,5.9,6.8,0,.9,0,1.2h-10.1ZM188.6,251.6c0-1.7-.7-4.2-3.6-4.2s-3.8,2.4-4,4.2h7.6Z"/>
      <path class="st1" d="M210,260.2l-.2-1.8h0c-.8,1.1-2.3,2.1-4.4,2.1s-4.4-2.1-4.4-4.1c0-3.5,3.1-5.4,8.7-5.4v-.3c0-1.2-.3-3.3-3.3-3.3-1.3,0-2.7.4-3.8,1.1l-.6-1.7c1.2-.8,2.9-1.3,4.8-1.3,4.4,0,5.5,3,5.5,5.9v5.4c0,1.2,0,2.5.2,3.4h-2.4ZM205.5,239.6l2.6,4.3h-1.9l-3.6-4.3h2.9ZM209.6,252.9c-2.8,0-6.1.4-6.1,3.2s1.1,2.5,2.4,2.5c1.9,0,3.1-1.2,3.5-2.4,0-.3.1-.6.1-.8v-2.5Z"/>
      <path class="st1" d="M224,239.1h2.6v21.2h-2.6v-21.2Z"/>
      <path class="st1" d="M239.7,260.2l-.2-1.8h0c-.8,1.1-2.3,2.1-4.4,2.1s-4.4-2.1-4.4-4.1c0-3.5,3.1-5.4,8.7-5.4v-.3c0-1.2-.3-3.3-3.3-3.3-1.3,0-2.7.4-3.8,1.1l-.6-1.7c1.2-.8,2.9-1.3,4.8-1.3,4.4,0,5.5,3,5.5,5.9v5.4c0,1.2,0,2.5.2,3.4h-2.4ZM239.3,252.9c-2.8,0-6.1.4-6.1,3.2s1.1,2.5,2.4,2.5c1.9,0,3.1-1.2,3.5-2.4,0-.3.1-.6.1-.8v-2.5Z"/>
      <path class="st1" d="M254,250.5c0-1.8,0-3.3-.1-4.7h2.3v2.5h.2c1-1.8,2.8-2.8,5.1-2.8,3.5,0,6.1,2.9,6.1,7.3s-3.2,7.8-6.6,7.8-3.6-.8-4.4-2.3h0v7.8h-2.6v-15.6ZM256.6,254.3c0,.4,0,.7.1,1.1.5,1.8,2.1,3.1,3.9,3.1,2.8,0,4.4-2.3,4.4-5.6s-1.5-5.3-4.3-5.3-3.5,1.3-4,3.2c0,.3-.2.7-.2,1.1v2.5Z"/>
      <path class="st1" d="M273.1,253.5c0,3.5,2.3,5,4.9,5s3-.3,4-.7l.5,1.9c-.9.4-2.5.9-4.8.9-4.4,0-7.1-3-7.1-7.3s2.6-7.8,6.8-7.8,5.9,4.1,5.9,6.8,0,.9,0,1.2h-10.1ZM280.8,251.6c0-1.7-.7-4.2-3.6-4.2s-3.8,2.4-4,4.2h7.6Z"/>
      <path class="st1" d="M287.2,250.3c0-1.7,0-3.2-.1-4.5h2.3v2.8h.2c.7-1.9,2.3-3.2,4-3.2s.5,0,.7,0v2.5c-.3,0-.5,0-.9,0-1.8,0-3.2,1.4-3.5,3.4,0,.4-.1.8-.1,1.2v7.7h-2.6v-9.9Z"/>
      <path class="st1" d="M297.3,257.5c.8.5,2.2,1,3.5,1,1.9,0,2.8-.9,2.8-2.1s-.8-1.9-2.7-2.6c-2.6-.9-3.8-2.4-3.8-4.1,0-2.3,1.9-4.2,5-4.2s2.7.4,3.5.9l-.7,1.9c-.6-.3-1.6-.8-3-.8s-2.4.9-2.4,2,.8,1.7,2.7,2.5c2.5.9,3.8,2.2,3.8,4.3,0,2.6-2,4.3-5.4,4.3s-3-.4-4-1l.6-2Z"/>
      <path class="st1" d="M323.1,252.9c0,5.3-3.7,7.7-7.2,7.7s-6.9-2.8-6.9-7.4,3.2-7.6,7.2-7.6,6.9,3,6.9,7.4ZM311.7,253c0,3.2,1.8,5.5,4.4,5.5s4.4-2.3,4.4-5.6-1.2-5.5-4.3-5.5-4.4,2.9-4.4,5.6Z"/>
      <path class="st1" d="M327.1,249.7c0-1.5,0-2.7-.1-3.9h2.3v2.4h.2c.7-1.4,2.4-2.7,4.8-2.7s5.1,1.2,5.1,6.1v8.6h-2.6v-8.3c0-2.3-.9-4.3-3.3-4.3s-3.1,1.2-3.5,2.7c-.1.3-.2.8-.2,1.2v8.7h-2.6v-10.5Z"/>
      <path class="st1" d="M344.3,249.7c0-1.5,0-2.7-.1-3.9h2.3v2.4h.2c.7-1.4,2.4-2.7,4.8-2.7s5.1,1.2,5.1,6.1v8.6h-2.6v-8.3c0-2.3-.9-4.3-3.3-4.3s-3.1,1.2-3.5,2.7c-.1.3-.2.8-.2,1.2v8.7h-2.6v-10.5Z"/>
      <path class="st1" d="M363,253.5c0,3.5,2.3,5,4.9,5s3-.3,4-.7l.5,1.9c-.9.4-2.5.9-4.8.9-4.4,0-7.1-3-7.1-7.3s2.6-7.8,6.8-7.8,5.9,4.1,5.9,6.8,0,.9,0,1.2h-10.1ZM370.6,251.6c0-1.7-.7-4.2-3.6-4.2s-3.8,2.4-4,4.2h7.6Z"/>
    </g>
    <g>
      <g>
        <path class="st0" d="M228.5,209.1l-5.6,18.5h-12.3l20.9-65.3h15.2l21.2,65.3h-12.8l-5.9-18.5h-20.7ZM247.2,200.1l-5.1-16.1c-1.3-4-2.3-8.4-3.3-12.2h-.2c-1,3.8-1.9,8.3-3.1,12.2l-5,16.1h16.8Z"/>
        <path class="st1" d="M318,213.5c0,5.6.2,10.3.4,14.1h-10.4l-.6-7.1h-.3c-2,3.3-6.7,8.1-15.2,8.1s-16.4-5.1-16.4-20.5v-27.7h11.9v25.7c0,7.8,2.5,12.9,8.8,12.9s7.9-3.3,9.1-6.4c.5-1,.7-2.3.7-3.7v-28.5h11.9v33Z"/>
        <path class="st1" d="M340.5,180.4l5.6,8.9c1.5,2.4,2.9,4.8,4.3,7.3h.2c1.5-2.6,2.7-5,4.2-7.5l5.2-8.7h13l-15.8,22.6,16.1,24.6h-13.6l-5.7-9.5c-1.5-2.5-2.9-5-4.3-7.7h-.2c-1.4,2.7-2.8,5.1-4.3,7.7l-5.5,9.4h-13.1l16.4-24.1-15.8-23.1h13.3Z"/>
      </g>
      <g>
        <path class="st0" d="M28.9,200.1l-8.3,27.5H2.2l31.1-97h22.6l31.5,97h-19l-8.8-27.5h-30.8ZM56.7,186.7l-7.6-23.9c-1.9-5.9-3.5-12.5-4.9-18.1h-.3c-1.4,5.6-2.9,12.4-4.6,18.1l-7.5,23.9h24.9Z"/>
        <path class="st1" d="M110.7,150.6v77h-12.2v-77h12.2Z"/>
        <path class="st1" d="M125,161.8c5.4-.9,12.2-1.5,19.4-1.5,12.5,0,21,2.6,27.1,7.7,6.5,5.2,10.5,13.3,10.5,24.5s-4.1,20.8-10.4,26.5c-6.6,6-17.2,9.1-30.2,9.1s-12.4-.4-16.4-.9v-65.5ZM137.2,218.3c1.7.3,4.3.3,6.7.3,15.8.1,25.2-8.7,25.2-25.6.1-14.6-8.4-23.1-23.6-23.1s-6.5.3-8.3.7v47.8Z"/>
        <path class="st1" d="M204.2,158.5c-2.7,9.2-5.8,21.2-9.5,27.4l-7.6.8c2.6-7.4,3.2-20.2,2.3-28.7,0,0,4,2.3,6.9,2.3s7.9-1.9,7.9-1.9Z"/>
      </g>
    </g>
  </g>
  <path class="st2" d="M130.7,110.1c-10.9-9.1-18.3-20.5-22-34.3-3.9-14.9-.2-29.5,9.4-41.5,11.4-14.3,28.9-23.4,47.4-20.3,9.8,1.7,19.9,6.1,27.5,12.6.1,0,.2.1.4.2,20.5-11.3,51.7-24.2,72.1,11.3.9,1.5-.2-12.2-9-22.6-8.4-9.9-22.6-13.4-37.7-10.3-6.4,1.3-12.6,3.4-18.6,5.9-1.7.7-3.6,1.4-5.1,2.4-.7.4-1.9.8-1.5.9-1.1-.2-2.9-2.2-3.8-2.8-2.7-1.8-5.4-3.4-8.3-4.8-8.1-4-17-6.3-26-5.9-20.5,1-39.1,17.4-46.6,36-7.7,19.1-5.7,42,2.3,60.6,4.5,10.5,11.7,18.8,20.2,25.7.9-3,1.7-6.6,2.2-10.8-1-.8-2-1.6-2.9-2.4Z"/>
  <path class="st2" d="M268.1,66.1c-5.9,16.3-14.5,29.8-25,41.1.7.2,1.3.4,2.1.4h.1c1.5.3,3.4.7,3.7,2.5.2,1-.1,2.4-2.4,3.6h0c-1.1.5-2,.7-3.4.8-.5,0-.9,0-1.4,0-1.9,0-3.9-.1-5.7-.4-6.6,6.1-13.8,11.4-21.5,16.1-5.9,3.6-12.1,6.9-18.5,9.4-2.8,1.1-4.1.4-7.1-.6-11.6-3.6-23.4-8-34.4-13.7-1.9,3.3-4.2,6.2-6.9,8.5,11.6,6.7,23.6,11.9,36.3,16.2,2.6.8,6.9,2.8,9.7,2.8,1.2,0,2.6-.9,3.8-1.3,31.9-13.4,59.9-38.1,69.5-71.3,2.3-7.8,2.1-16.7,1.2-14.3Z"/>
  <path class="st1" d="M247.1,110.4c0-.5-.9-.7-2.2-1-1.2,0-2.3-.4-3.2-.8-.9-.4-1.7-.9-2.5-1.3-6.1-3.9-9.2-15.4-9.5-35,0-2.8-.2-5.5-.2-8.1-.4-13.3-.7-24.8-1.8-28.4-1.3-3.6-6.8-5.7-9.4-6.7l-.6-.2c-2.7-1.1-4.6-1.3-5.7-.6-.7.4-1.2,1.3-1.3,2.7-.9,6.8-1.5,22.7-1.5,37.8h0c0,.1,0,.2,0,.2-.2.6-.3,1.2-.5,1.9.2.7.4,1.4.6,2.1,1.4,5.1,2.3,11.2,2.8,17.9,0,.6,0,1.2.1,1.7,3.9,10.4,11.4,17.3,21.5,19.5,1.2.2,2.7.4,4.3.5,1.8.2,3.7.2,5.2.2,1.1-.1,1.9-.3,2.8-.6,1-.5,1.5-1.1,1.4-1.6Z"/>
  <path class="st1" d="M183.6,106.2c.1,0,.3,0,.4,0,.3-2.3.5-4.5.5-6.6,0-4.1-.1-8.1-.4-12.3-1-3.5-1.4-7.4-1.4-11.4s0-.6,0-.8c0-.2,0-.4,0-.7,0-10.4.8-18.9,2.2-25.3,1.4-6.4,3.5-10.8,6.2-13.3,2.7-2.6,8-2.9,11.7-2.1,1.1.3,2.2.4,2.9.3-.2-.1-.4-.3-.8-.5-3.7-2.2-11.3-4.4-18.4-4.4-12.1,0-20.1,8.4-23.7,25v.2c-.2.6-.3,1.2-.4,1.9-1.2,6.4-1.8,13.8-1.8,22.1,0,27.9,17.3,27.9,23,27.9Z"/>
  <path class="st1" d="M162.4,56.2c.1-.6.3-1.2.4-1.9v-.2c3.7-16.6,11.6-25,23.7-25s14.7,2.2,18.4,4.4c.3.2.6.3.8.5-.7,0-1.8,0-2.9-.3-3.8-.8-9.1-.5-11.7,2.1-2.7,2.4-4.8,6.9-6.2,13.3-1.4,6.4-2.2,14.9-2.2,25.3,0,.2,0,.4,0,.7,0,.3,0,.5,0,.8,0,4,.5,7.8,1.4,11.4.3,4.2.4,8.2.4,12.3s-.2,4.3-.5,6.6c-.1,0-.3,0-.4,0-5.7,0-23,0-23-27.9s.6-15.8,1.8-22.1Z"/>
  <path class="st0" d="M161.2,53c-1,.6-1.8,1.2-2.3,1.7-1.1,1.1-.8,1.9.2,2.3.3.1.7.2,1.2.3,0,0,0,0,0,0,.3-1.5.6-3,.9-4.4,0,0,0,0-.1,0Z"/>
  <path class="st0" d="M210.2,92.9c0-.7,0-1.3-.1-2-.5-6.6-1.4-12.6-2.7-17.6-.2-.9-.5-1.7-.7-2.6-3.8-12-10.3-18.9-19.4-20.5-1.3,6.2-1.9,14.2-2,24,.6,3.7,1.1,8,1.4,12.8.3,4.3.4,8.4.4,12.5s-.2,4.9-.6,7.6c-1.3,8.2-5.3,16.6-10.4,16.6s-13.9-17.9-17.3-30.2h0v-.2c0-16.1-.7-33-1.6-40.2-.2-1.5-.7-2.4-1.4-2.9-1.2-.7-3.2-.5-6.1.7l-.6.2c-2.8,1.1-8.7,3.3-10.1,7.2-1.2,3.9-1.5,16.1-1.9,30.2,0,2.8-.2,5.6-.2,8.6,0,6.3-.5,11.7-1.1,16.4-.6,4.2-1.3,7.7-2.3,10.7-1.6,4.8-3.8,8.1-6.6,9.9-1.8,1.1-3.6,2.1-6.1,2.3-1.3.3-2.3.5-2.3,1.1-.1.6.4,1.2,1.5,1.8,1,.4,1.7.5,3,.7,3,.1,7.3-.3,10-.8,5-1.1,9.5-3.3,13.2-6.4,2.7-2.3,5.1-5.1,7-8.4,2.8-4.9,4.7-10.7,5.4-17.4l.5-4.4,1.3,4.3c5.2,16.7,13.7,24.8,26,24.8s24.5,0,24.5-29.6,0-6.2-.3-9.3Z"/>
</svg>